<?xml version="1.0" encoding="utf-8"?><svg viewBox="0 0 40 40" xmlns="http://www.w3.org/2000/svg" xmlns:xlink="http://www.w3.org/1999/xlink"><style>:root>svg{display:none}:root>svg:target{display:block}</style><svg fill="none" viewBox="0 0 40 40" id="1" xmlns="http://www.w3.org/2000/svg"><rect x=".5" y=".5" width="39" height="39" rx="3.5" fill="wheat" stroke="#000"/><path d="M17.113 18.383c-.284-2.352-2.063-3.704-4.42-3.704-2.69 0-4.743 1.9-4.743 5.23 0 3.321 2.019 5.23 4.743 5.23 2.61 0 4.186-1.735 4.42-3.61l-2.178-.01c-.204 1.09-1.059 1.716-2.207 1.716-1.546 0-2.595-1.148-2.595-3.326 0-2.118 1.034-3.326 2.61-3.326 1.178 0 2.028.681 2.192 1.8h2.178zm5.565-1.02h-1.436v-1.829h-2.118v1.83H18.08v1.59h1.044v3.978c-.01 1.496 1.009 2.237 2.545 2.172.547-.02.935-.129 1.149-.198l-.333-1.576c-.105.02-.329.07-.527.07-.423 0-.716-.16-.716-.747v-3.698h1.436v-1.591zM24.058 25h2.118v-4.32c0-.94.686-1.586 1.62-1.586.294 0 .697.05.896.114v-1.88a3.181 3.181 0 00-.667-.074c-.855 0-1.556.497-1.834 1.442h-.08v-1.332h-2.053V25zm7.846-10.182h-2.117V25h2.117V14.818z" fill="#000"/></svg><svg fill="none" viewBox="0 0 40 40" id="2" xmlns="http://www.w3.org/2000/svg"><rect x=".5" y=".5" width="39" height="39" rx="3.5" fill="wheat" stroke="#000"/><path d="M12.776 25l.755-2.322h3.674L17.961 25h2.307l-3.51-10.182h-2.774L10.469 25h2.307zm1.302-4.002l1.253-3.853h.08l1.252 3.853h-2.585zm9.494-6.18h-2.118V25h2.117V14.818zm5.758 2.546h-1.437v-1.83h-2.118v1.83h-1.044v1.59h1.044v3.978c-.01 1.496 1.01 2.237 2.546 2.172a4.12 4.12 0 001.148-.198l-.333-1.576c-.104.02-.328.07-.527.07-.423 0-.716-.16-.716-.747v-3.698h1.437v-1.591z" fill="#000"/></svg><svg fill="none" viewBox="0 0 40 40" id="3" xmlns="http://www.w3.org/2000/svg"><rect x=".5" y=".5" width="39" height="39" rx="3.5" fill="wheat" stroke="#000"/><path d="M21.811 18.11H24c-.279-2.014-2.054-3.431-4.355-3.431-2.69 0-4.763 1.939-4.763 5.24 0 3.222 1.939 5.22 4.807 5.22 2.57 0 4.405-1.625 4.405-4.305V19.55h-4.26v1.62h2.187c-.03 1.264-.89 2.064-2.322 2.064-1.616 0-2.635-1.208-2.635-3.336 0-2.118 1.06-3.316 2.615-3.316 1.109 0 1.86.572 2.133 1.526z" fill="#000"/></svg></svg>