<svg width="40" height="40" viewBox="0 0 40 40" fill="none" xmlns="http://www.w3.org/2000/svg">
<rect x="0.5" y="0.5" width="39" height="39" rx="3.5" fill="wheat" stroke="black"/>
<path d="M17.1127 18.3828C16.8294 16.0312 15.0495 14.679 12.693 14.679C10.0034 14.679 7.95011 16.5781 7.95011 19.9091C7.95011 23.2301 9.96857 25.1392 12.693 25.1392C15.3031 25.1392 16.8791 23.4041 17.1127 21.5298L14.9352 21.5199C14.7314 22.6087 13.8762 23.2351 12.7278 23.2351C11.1816 23.2351 10.1326 22.0866 10.1326 19.9091C10.1326 17.7912 11.1667 16.5831 12.7427 16.5831C13.921 16.5831 14.7711 17.2642 14.9352 18.3828H17.1127ZM22.6784 17.3636H21.2417V15.5341H19.1238V17.3636H18.0797V18.9545H19.1238V22.9318C19.1138 24.4283 20.133 25.169 21.6692 25.1044C22.2161 25.0845 22.6039 24.9751 22.8176 24.9055L22.4846 23.3295C22.3801 23.3494 22.1564 23.3991 21.9576 23.3991C21.535 23.3991 21.2417 23.2401 21.2417 22.6534V18.9545H22.6784V17.3636ZM24.0581 25H26.176V20.6797C26.176 19.7401 26.862 19.0938 27.7967 19.0938C28.09 19.0938 28.4927 19.1435 28.6916 19.2081V17.3288C28.5027 17.2841 28.2392 17.2543 28.0254 17.2543C27.1703 17.2543 26.4693 17.7514 26.1909 18.696H26.1113V17.3636H24.0581V25ZM31.9045 14.8182H29.7866V25H31.9045V14.8182Z" fill="black"/>
</svg>
