<svg width="40" height="40" viewBox="0 0 40 40" fill="none" xmlns="http://www.w3.org/2000/svg">
<rect x="0.5" y="0.5" width="39" height="39" rx="3.5" fill="wheat" stroke="black"/>
<path d="M12.7757 25L13.5313 22.6783H17.2053L17.961 25H20.2678L16.7579 14.8182H13.9838L10.4688 25H12.7757ZM14.0782 20.9979L15.3311 17.1449H15.4106L16.6634 20.9979H14.0782ZM23.5715 14.8182H21.4536V25H23.5715V14.8182ZM29.3298 17.3636H27.893V15.5341H25.7751V17.3636H24.7311V18.9545H25.7751V22.9318C25.7652 24.4283 26.7844 25.169 28.3206 25.1044C28.8675 25.0845 29.2552 24.9751 29.469 24.9055L29.1359 23.3295C29.0315 23.3494 28.8078 23.3991 28.6089 23.3991C28.1863 23.3991 27.893 23.2401 27.893 22.6534V18.9545H29.3298V17.3636Z" fill="black"/>
</svg>
