<svg width="40" height="40" viewBox="0 0 40 40" fill="none" xmlns="http://www.w3.org/2000/svg">
<rect x="0.5" y="0.5" width="39" height="39" rx="3.5" fill="wheat" stroke="black"/>
<path d="M21.8112 18.1094H23.9987C23.7203 16.0959 21.9454 14.679 19.6436 14.679C16.9539 14.679 14.8808 16.6179 14.8808 19.919C14.8808 23.1406 16.8197 25.1392 19.6883 25.1392C22.2586 25.1392 24.0931 23.5135 24.0931 20.8338V19.5511H19.8325V21.1719H22.02C21.9901 22.4347 21.1301 23.2351 19.6982 23.2351C18.0825 23.2351 17.0633 22.027 17.0633 19.8991C17.0633 17.7812 18.1222 16.5831 19.6784 16.5831C20.787 16.5831 21.5377 17.1548 21.8112 18.1094Z" fill="black"/>
</svg>
